<svg width="12.640625" height="7.859375" viewBox="0 0 12.6406 7.85938" fill="none" xmlns="http://www.w3.org/2000/svg" xmlns:xlink="http://www.w3.org/1999/xlink">
	<desc>
			Created with Pixso.
	</desc>
	<defs/>
	<path id="icon/hardware/keyboard_arrow_left_24px" d="M2.28 7.05L6.32 3.01L10.36 7.05C10.77 7.46 11.42 7.46 11.83 7.05C12.03 6.86 12.14 6.59 12.14 6.32C12.14 6.04 12.03 5.78 11.83 5.58L7.05 0.8C6.64 0.39 5.99 0.39 5.58 0.8L0.8 5.58C0.39 5.99 0.39 6.64 0.8 7.05C1.21 7.45 1.87 7.46 2.28 7.05Z" fill="#0C0B0B" fill-opacity="1.000000" fill-rule="evenodd"/>
	<path id="icon/hardware/keyboard_arrow_left_24px" d="M6.32 3.01L10.36 7.05C10.77 7.46 11.42 7.46 11.83 7.05C12.03 6.86 12.14 6.59 12.14 6.32C12.14 6.04 12.03 5.78 11.83 5.58L7.05 0.8C6.64 0.39 5.99 0.39 5.58 0.8L0.8 5.58C0.39 5.99 0.39 6.64 0.8 7.05C1.21 7.45 1.87 7.46 2.28 7.05L6.32 3.01Z" stroke="#0C0B0B" stroke-opacity="1.000000" stroke-width="1.000000"/>
</svg>
